<?xml version="1.0" standalone="no"?>
<!DOCTYPE svg PUBLIC "-//W3C//DTD SVG 20010904//EN"
 "http://www.w3.org/TR/2001/REC-SVG-20010904/DTD/svg10.dtd">
<svg version="1.0" xmlns="http://www.w3.org/2000/svg"
 width="1748.000000pt" height="1240.000000pt" viewBox="0 0 1748.000000 1240.000000"
 preserveAspectRatio="xMidYMid meet">

<g transform="translate(0.000000,1240.000000) scale(0.100000,-0.100000)"
fill="#000000" stroke="none">
<path d="M5092 8913 c-7 -3 -18 -17 -24 -32 -14 -37 -27 -188 -21 -243 l5 -46
188 -4 c104 -1 192 -7 197 -11 13 -14 16 -171 4 -271 -18 -155 -46 -210 -126
-247 -60 -28 -126 -25 -164 7 -17 14 -31 32 -31 39 0 8 -9 11 -25 7 -61 -11
-9 -106 72 -130 56 -17 84 -15 146 8 99 37 164 126 188 256 10 53 5 371 -6
382 -13 13 -100 22 -226 22 l-146 0 5 123 c4 96 2 125 -9 133 -8 6 -20 9 -27
7z"/>
<path d="M8666 8905 c-25 -25 -31 -60 -31 -190 l0 -120 185 -5 c102 -3 191 -9
198 -13 17 -11 16 -228 -2 -328 -20 -108 -45 -153 -106 -184 -34 -17 -66 -25
-101 -25 -46 0 -55 4 -85 36 -38 39 -67 42 -72 6 -5 -32 54 -87 108 -102 58
-16 114 -6 177 30 60 34 96 77 126 152 20 48 22 74 24 260 l2 207 -50 10 c-28
6 -115 11 -195 11 l-145 0 7 38 c4 20 8 74 8 119 1 63 -3 86 -15 98 -15 15
-17 15 -33 0z"/>
<path d="M3384 8842 c-7 -10 -8 -37 -4 -71 8 -61 -2 -192 -28 -393 -17 -121
-17 -138 -4 -143 9 -3 19 0 23 7 26 41 59 296 60 454 1 143 -16 196 -47 146z"/>
<path d="M4420 8677 c0 -18 -10 -26 -57 -42 -45 -16 -59 -25 -61 -43 -3 -22
-2 -23 60 -16 l64 6 -4 -103 c-2 -57 -12 -186 -21 -287 -12 -139 -14 -188 -5
-204 11 -21 11 -21 28 5 31 47 48 180 49 395 l2 204 110 -4 c131 -4 190 -26
227 -86 22 -35 23 -47 23 -207 0 -135 -4 -181 -17 -222 -21 -62 -16 -83 22
-83 27 0 29 3 39 68 45 271 40 392 -19 485 -22 35 -43 52 -95 78 -61 30 -77
33 -181 37 -83 3 -114 8 -114 17 0 12 -21 25 -41 25 -5 0 -9 -10 -9 -23z"/>
<path d="M13858 8676 c-57 -20 -86 -43 -121 -93 -65 -93 -60 -90 -90 -57 -15
16 -36 52 -46 79 -13 36 -25 51 -40 53 -19 3 -21 -1 -21 -38 0 -38 43 -139 59
-140 3 -1 16 -9 29 -20 l23 -19 -39 -68 c-22 -37 -56 -101 -76 -142 -36 -70
-36 -74 -20 -92 9 -10 21 -19 25 -19 4 0 47 76 94 168 129 254 211 340 313
329 82 -9 127 -86 126 -217 0 -164 -47 -272 -138 -322 -56 -29 -123 -44 -244
-54 -75 -6 -83 -9 -88 -30 -12 -48 -8 -48 206 -23 110 13 187 48 244 109 66
70 81 129 81 310 0 136 -2 148 -27 202 -35 75 -71 98 -153 98 -33 -1 -77 -7
-97 -14z"/>
<path d="M7110 8656 c-25 -7 -55 -18 -68 -25 -31 -16 -25 -47 8 -44 201 16
234 15 280 -9 71 -37 83 -72 88 -253 2 -107 -1 -163 -10 -195 l-14 -45 -129
-11 c-201 -17 -215 -21 -215 -51 l0 -26 152 6 c83 4 200 7 260 7 100 0 108 1
108 19 0 27 -46 61 -83 61 -26 0 -29 3 -23 23 16 60 28 200 23 267 -10 128
-58 225 -131 262 -51 26 -179 34 -246 14z"/>
<path d="M9345 8663 c-11 -2 -41 -11 -67 -19 -41 -13 -48 -20 -48 -41 0 -21 4
-24 23 -20 46 12 186 19 231 13 61 -9 112 -53 127 -109 17 -59 17 -301 1 -358
l-14 -45 -141 -12 c-78 -7 -155 -15 -170 -19 -31 -6 -46 -28 -30 -44 6 -6 107
-7 266 -3 278 8 283 9 232 59 -15 16 -35 25 -55 25 l-31 0 8 58 c4 31 8 118 8
192 0 115 -3 142 -21 181 -31 68 -78 115 -131 133 -43 15 -142 20 -188 9z"/>
<path d="M9950 8665 c-8 -2 -32 -6 -52 -10 -28 -4 -38 -11 -38 -25 0 -10 5
-22 12 -26 6 -4 96 -6 199 -5 169 2 192 0 233 -18 60 -26 86 -69 86 -141 0
-65 -30 -182 -65 -250 -45 -89 -153 -160 -224 -147 -34 7 -51 -1 -51 -24 0
-27 67 -43 123 -29 61 17 134 66 178 122 81 103 134 356 92 438 -43 83 -156
120 -358 119 -66 -1 -127 -3 -135 -4z"/>
<path d="M13272 8647 c-22 -23 -22 -24 -7 -128 44 -314 -2 -488 -159 -593 -33
-22 -49 -26 -117 -26 -43 0 -80 -4 -83 -9 -4 -5 -2 -21 4 -35 9 -24 14 -26 69
-26 179 0 322 148 350 363 12 84 13 392 2 442 -8 38 -31 42 -59 12z"/>
<path d="M10900 8650 c-30 -5 -94 -20 -143 -34 -48 -15 -89 -26 -92 -26 -3 0
-5 -7 -5 -15 0 -8 13 -21 28 -29 33 -17 45 -59 63 -211 19 -159 -12 -307 -79
-379 -45 -47 -117 -76 -194 -76 -64 0 -68 -1 -68 -22 0 -44 13 -51 81 -46 74
5 156 39 212 87 109 96 155 355 102 576 -22 94 -24 91 54 109 187 43 331 -4
362 -117 21 -80 -28 -287 -87 -364 -21 -27 -25 -40 -17 -52 17 -27 36 -18 69
32 59 90 114 304 99 385 -16 84 -72 152 -143 172 -53 15 -178 20 -242 10z"/>
<path d="M14295 8653 c-39 -6 -49 -16 -40 -42 6 -19 11 -20 78 -15 l72 7 -3
-89 c-2 -55 2 -121 13 -174 9 -47 19 -145 22 -218 6 -128 7 -133 27 -130 17 2
23 14 33 58 17 84 15 132 -12 298 -14 84 -25 174 -25 202 l0 49 91 -6 91 -6
-7 24 c-4 13 -8 25 -9 26 -1 1 -31 7 -66 12 -63 11 -204 12 -265 4z"/>
<path d="M3712 8641 c-51 -13 -122 -42 -122 -49 0 -4 4 -13 9 -20 6 -11 23
-11 85 -3 230 32 345 -5 376 -120 23 -86 9 -352 -21 -411 -14 -26 0 -48 31
-48 34 0 34 0 56 150 22 153 16 297 -16 363 -25 53 -82 103 -143 125 -48 17
-206 25 -255 13z"/>
<path d="M6072 8567 c-12 -45 -41 -113 -62 -151 -22 -38 -40 -76 -40 -85 -1
-26 -81 68 -166 195 -65 96 -82 114 -103 114 -53 0 -52 -12 14 -110 99 -147
199 -257 290 -318 91 -60 115 -84 115 -118 0 -46 -35 -56 -197 -57 -82 0 -168
5 -193 11 -39 10 -47 9 -58 -6 -24 -32 -10 -46 63 -61 57 -11 95 -12 210 -3
214 18 254 36 242 109 -8 47 -46 93 -136 166 l-71 59 53 58 c57 63 150 229
139 246 -9 14 -47 34 -64 34 -8 0 -22 -33 -36 -83z"/>
<path d="M6455 8640 c-22 -4 -59 -16 -81 -25 -34 -13 -41 -20 -36 -37 4 -18
10 -19 46 -14 23 4 89 9 147 13 129 7 191 -9 238 -62 39 -45 46 -83 45 -245
-1 -107 -5 -147 -21 -193 -23 -66 -15 -91 28 -85 22 3 25 10 41 108 25 152 24
314 -2 384 -24 62 -70 108 -139 139 -51 23 -198 32 -266 17z"/>
<path d="M8065 8640 c-22 -4 -59 -16 -81 -25 -34 -13 -41 -20 -36 -37 4 -18
10 -19 46 -14 23 4 89 9 147 13 129 7 191 -9 238 -62 39 -45 46 -83 45 -245
-1 -107 -5 -147 -21 -193 -23 -66 -15 -91 28 -85 22 3 25 10 41 108 25 152 24
314 -2 384 -24 62 -70 108 -139 139 -51 23 -198 32 -266 17z"/>
<path d="M11525 8636 c-89 -25 -105 -34 -105 -57 0 -20 3 -20 68 -12 37 4 114
8 172 8 93 0 110 -3 149 -25 78 -43 86 -69 86 -260 0 -131 -4 -176 -17 -217
-21 -62 -16 -83 22 -83 27 0 28 3 40 66 35 207 38 353 6 429 -23 55 -79 109
-140 136 -64 28 -206 36 -281 15z"/>
<path d="M12525 8636 c-89 -25 -105 -34 -105 -57 0 -20 3 -20 68 -12 37 4 114
8 172 8 93 0 110 -3 149 -25 78 -43 86 -69 86 -260 0 -131 -4 -176 -17 -217
-21 -62 -16 -83 22 -83 27 0 28 3 40 66 35 207 38 353 6 429 -23 55 -79 109
-140 136 -64 28 -206 36 -281 15z"/>
<path d="M14855 8636 c-84 -22 -105 -34 -105 -57 0 -20 3 -20 68 -12 37 4 114
8 172 8 96 0 109 -2 151 -27 74 -44 84 -73 84 -258 0 -121 -4 -168 -18 -214
-22 -70 -17 -89 20 -84 26 3 29 8 40 63 20 103 35 277 29 329 -16 123 -65 196
-158 236 -66 28 -207 36 -283 16z"/>
<path d="M9927 8393 c-3 -5 -7 -148 -9 -318 l-3 -310 22 -3 c19 -3 22 3 28 60
3 35 5 178 3 318 -3 228 -5 255 -20 258 -9 2 -18 -1 -21 -5z"/>
<path d="M3657 8332 c3 -29 -4 -105 -17 -191 -23 -144 -21 -168 12 -156 44 17
71 205 52 349 -6 40 -10 46 -30 46 -22 0 -23 -3 -17 -48z"/>
<path d="M6398 8320 c2 -33 -6 -119 -18 -191 -23 -138 -20 -166 18 -143 30 19
45 84 50 216 5 150 0 178 -31 178 -21 0 -22 -4 -19 -60z"/>
<path d="M8008 8320 c2 -33 -6 -119 -18 -191 -23 -138 -20 -166 18 -143 30 19
45 84 50 216 5 150 0 178 -31 178 -21 0 -22 -4 -19 -60z"/>
<path d="M11483 8298 c0 -46 -8 -121 -17 -167 -18 -93 -21 -151 -7 -151 27 0
43 17 55 64 20 72 27 168 18 256 -6 65 -10 75 -27 78 -20 3 -21 -2 -22 -80z"/>
<path d="M12483 8298 c0 -46 -8 -121 -17 -167 -18 -93 -21 -151 -7 -151 27 0
43 17 55 64 20 72 27 168 18 256 -6 65 -10 75 -27 78 -20 3 -21 -2 -22 -80z"/>
<path d="M14810 8303 c0 -43 -9 -127 -19 -188 -10 -60 -16 -115 -14 -123 10
-24 38 -8 58 33 17 35 20 60 20 195 0 153 0 155 -22 158 -22 3 -23 1 -23 -75z"/>
<path d="M3277 8122 c-23 -26 -24 -137 -1 -146 27 -10 30 -8 68 47 39 56 45
77 21 77 -7 0 -18 6 -22 14 -14 24 -48 28 -66 8z"/>
<path d="M13320 2349 c-406 -41 -841 -235 -1090 -488 -107 -108 -159 -189
-196 -306 -71 -225 -23 -479 133 -704 94 -136 190 -227 358 -342 160 -109 279
-244 368 -417 l48 -92 2269 0 2270 0 0 1124 0 1125 -82 -30 c-183 -67 -306
-137 -533 -303 -195 -143 -472 -252 -738 -290 -532 -76 -1029 43 -1486 359
-317 218 -628 330 -1013 365 -120 11 -191 11 -308 -1z"/>
<path d="M6001 1513 c-6 -21 -11 -66 -11 -99 l0 -61 38 -7 c20 -3 76 -6 123
-6 70 0 88 -3 93 -16 16 -42 -5 -233 -29 -271 -21 -31 -56 -53 -98 -60 -29 -4
-40 -1 -62 21 -33 33 -47 33 -43 -1 2 -21 13 -33 42 -47 55 -27 117 -11 168
43 48 51 58 91 58 237 0 102 -3 123 -16 128 -9 3 -63 6 -121 6 l-105 0 2 63
c2 34 2 72 1 85 -2 36 -29 26 -40 -15z"/>
<path d="M3699 1503 c0 -4 0 -35 1 -68 1 -34 -6 -116 -15 -184 -16 -121 -15
-145 5 -125 31 31 51 372 23 382 -7 2 -13 0 -14 -5z"/>
<path d="M3813 1393 c-7 -2 -13 -12 -13 -20 0 -13 10 -15 62 -10 77 7 127 -11
153 -56 18 -30 19 -49 17 -259 -3 -202 -2 -228 12 -228 9 0 16 8 16 18 0 15 6
17 34 14 73 -9 158 43 197 121 34 66 41 206 15 324 -7 30 -6 32 31 42 93 26
196 6 229 -44 25 -39 13 -142 -27 -223 -20 -42 -28 -67 -21 -74 24 -24 80 100
97 214 9 59 -20 130 -62 151 -63 33 -206 27 -308 -13 l-30 -12 22 -17 c40 -33
57 -211 28 -307 -23 -80 -83 -124 -166 -124 -40 0 -40 0 -34 33 3 17 7 106 8
197 2 159 1 166 -22 204 -32 50 -87 76 -166 75 -33 0 -66 -3 -72 -6z"/>
<path d="M4717 1383 c-58 -18 -53 -38 8 -29 l42 7 -8 -63 c-5 -35 -11 -71 -13
-80 -2 -10 2 -18 9 -18 17 0 42 70 48 133 4 39 1 49 -14 57 -10 6 -19 10 -21
9 -2 -1 -24 -8 -51 -16z"/>
<path d="M4927 1383 c-58 -18 -53 -38 8 -29 l42 7 -8 -63 c-5 -35 -11 -71 -13
-80 -2 -10 2 -18 9 -18 17 0 42 70 48 133 4 39 1 49 -14 57 -10 6 -19 10 -21
9 -2 -1 -24 -8 -51 -16z"/>
<path d="M5213 1383 c-20 -17 -21 -22 -12 -78 16 -94 7 -242 -18 -290 -39 -74
-108 -122 -159 -109 -36 9 -53 -1 -47 -27 5 -19 11 -21 53 -17 26 3 65 14 86
25 43 21 97 94 114 151 15 50 24 289 13 330 -8 34 -9 34 -30 15z"/>
<path d="M5415 1391 c-36 -4 -51 -11 -53 -23 -3 -16 8 -18 128 -18 151 0 182
-10 199 -63 22 -66 -22 -201 -83 -255 -30 -26 -45 -32 -81 -32 -49 0 -64 -23
-24 -35 39 -13 87 5 138 51 39 35 54 58 71 108 47 143 35 212 -43 246 -47 21
-175 31 -252 21z"/>
<path d="M7877 1358 c4 -24 6 -123 4 -220 -3 -155 -1 -178 12 -178 20 0 31 94
31 260 0 130 -11 180 -40 180 -13 0 -14 -7 -7 -42z"/>
<path d="M6654 1292 c-1 -100 -18 -207 -35 -217 -17 -11 -112 49 -140 88 -29
40 -49 112 -49 178 0 52 -21 48 -33 -7 -23 -112 69 -266 174 -289 34 -8 36
-14 9 -47 -21 -28 -94 -62 -153 -73 -54 -10 -41 -30 19 -29 89 2 164 57 204
147 55 123 68 347 21 347 -14 0 -16 -15 -17 -98z"/>
<path d="M7420 1380 c-26 -16 -1 -23 105 -28 l106 -5 -6 -96 c-13 -206 -11
-275 6 -279 14 -2 17 18 22 150 4 84 11 169 15 188 7 33 11 35 50 38 69 5 53
28 -25 35 -100 10 -256 8 -273 -3z"/>
<path d="M8225 1383 c-27 -4 -118 -27 -154 -39 -10 -3 -7 -11 12 -28 48 -44
57 -251 15 -335 -28 -55 -89 -91 -154 -91 -37 0 -42 -2 -37 -20 10 -37 105
-22 172 28 75 56 110 217 79 365 l-15 67 41 11 c22 6 71 9 108 7 57 -3 72 -8
97 -32 16 -15 31 -38 33 -51 9 -46 -12 -148 -42 -203 -21 -40 -27 -59 -19 -66
33 -34 106 166 97 265 -10 98 -92 141 -233 122z"/>
<path d="M7031 1367 c-19 -7 -36 -18 -39 -25 -3 -10 15 -11 87 -6 116 9 175
-10 197 -62 18 -43 18 -206 0 -256 -14 -40 -7 -64 17 -55 21 8 32 80 32 207 0
95 -2 108 -24 139 -34 47 -91 71 -171 70 -36 0 -80 -5 -99 -12z"/>
<path d="M5397 1153 c-4 -37 -7 -128 -7 -200 0 -108 3 -133 14 -133 18 0 29
136 24 289 -4 123 -22 148 -31 44z"/>
<path d="M7026 1182 c3 -15 -2 -68 -10 -117 -19 -110 -19 -105 -1 -105 19 0
31 30 40 103 9 72 -1 147 -20 147 -10 0 -13 -8 -9 -28z"/>
<path d="M3631 1046 c-15 -18 -10 -88 6 -93 6 -2 23 13 37 33 l25 37 -24 18
c-28 23 -29 23 -44 5z"/>
</g>
</svg>
